# xmcd CD database file
#
# Track frame offsets:
#	150
#	13182
#	25787
#	39941
#	52268
#	65778
#	80837
#	93062
#	105729
#	118549
#	131495
#	143636
#	155921
#	171125
#	185797
#	199192
#	212731
#	226608
#	240483
#	254227
#	265771
#	278277
#	289158
#	299902
#
# Disc length: 4270 seconds
#
# Revision: 0
# Processed by: cddbd v1.5.1PL0 Copyright (c) Steve Scherf et al.
# Submitted via: ACXtractor (MTCDDB.DLL V2003.07.15)
#
DISCID=6c10ac18
DTITLE=Louis Jordan and his Tympany Five - Saturday Night Fish Fry
DYEAR=2000
DGENRE=Blues
TTITLE0=Ain't That Just Like A Woman
TTITLE1=Knock Me A Kiss
TTITLE2=Ration Blues
TTITLE3=Is You Is Or Is You Ain't My Baby
TTITLE4=G. I. Jive
TTITLE5=You Can't Get That No More
TTITLE6=Caldonia Boogie
TTITLE7=Let The Good Times Roll
TTITLE8=Buzz Me
TTITLE9=Beware, Brother, Beware
TTITLE10=Stone Cold Dead In De Market (with Ella Fitzgerald)
TTITLE11=Choo Choo Ch'Boogie
TTITLE12=Early In The Morning
TTITLE13=Somebody Done Changed The Lock On My Door
TTITLE14=What's The Use Of Getting Sober
TTITLE15=Five Guys Named Moe
TTITLE16=Ain't Nobody Here But Us Chickens
TTITLE17=Texas And Pacific
TTITLE18=Open The Door, Richard
TTITLE19=Jack, You're Dead
TTITLE20=Boogie Woogie Blue Plate
TTITLE21=That Chick's Too Young To Fry
TTITLE22=Friendship
TTITLE23=Saturday Night Fish Fry
EXTD=Saturday Night Fish Fry - The Original and Greatest Hits ID3G:   0 YEAR: 20
EXTD=00
EXTT0=
EXTT1=
EXTT2=
EXTT3=
EXTT4=
EXTT5=
EXTT6=
EXTT7=
EXTT8=
EXTT9=
EXTT10=
EXTT11=
EXTT12=
EXTT13=
EXTT14=What's The Use Of Getting Sober (if you're gonna get drunk again)
EXTT15=
EXTT16=
EXTT17=
EXTT18=
EXTT19=
EXTT20=
EXTT21=
EXTT22=
EXTT23=
PLAYORDER=
